<svg xmlns="http://www.w3.org/2000/svg" viewBox="0 0 32 32" width="32" height="32">
  <defs>
    <linearGradient id="bgGradient" x1="0%" y1="0%" x2="100%" y2="100%">
      <stop offset="0%" style="stop-color:#60a5fa;stop-opacity:1" />
      <stop offset="100%" style="stop-color:#3b82f6;stop-opacity:1" />
    </linearGradient>
  </defs>
  
  <!-- Simple blue background circle -->
  <circle cx="16" cy="16" r="15" fill="url(#bgGradient)"/>
  
  <!-- Large, simple heart - clean and visible -->
  <path d="M16,26 C16,26 8,18 8,13 C8,10 10,8 13,8 C14.5,8 15.5,9 16,10 C16.5,9 17.5,8 19,8 C22,8 24,10 24,13 C24,18 16,26 16,26 Z" 
        fill="#ffffff"/>
  
  <!-- Simple child figure inside the heart -->
  <g transform="translate(16,16)" fill="#3b82f6">
    <!-- Head -->
    <circle cx="0" cy="-2" r="2"/>
    <!-- Body -->
    <rect x="-1" y="0" width="2" height="4" rx="1"/>
    <!-- Arms -->
    <rect x="-2.5" y="0.5" width="5" height="1" rx="0.5"/>
    <!-- Legs -->
    <rect x="-1.5" y="4" width="1.2" height="2.5" rx="0.6"/>
    <rect x="0.3" y="4" width="1.2" height="2.5" rx="0.6"/>
  </g>
</svg>